<svg height="512pt" viewBox="0 0 512 512" width="512pt" 
    xmlns="http://www.w3.org/2000/svg" fill="#e0e0e0">
    <path d="m180 150h30v30h-30zm0 0"/>
    <path d="m120 150h30v30h-30zm0 0"/>
    <path d="m240 150h30v30h-30zm0 0"/>
    <path d="m300 150h30v30h-30zm0 0"/>
    <path d="m180 210h30v30h-30zm0 0"/>
    <path d="m120 210h30v30h-30zm0 0"/>
    <path d="m240 210h30v30h-30zm0 0"/>
    <path d="m60 210h30v30h-30zm0 0"/>
    <path d="m180 270h30v30h-30zm0 0"/>
    <path d="m120 270h30v30h-30zm0 0"/>
    <path d="m60 270h30v30h-30zm0 0"/>
    <path d="m390 240.71875v-210.71875h-60v-30h-30v30h-90v-30h-30v30h-90v-30h-30v30h-60v330h240.945312c-.617187 5.25-.945312 10.585938-.945312 16 0 74.992188 61.007812 136 136 136s136-61.007812 136-136c0-70.265625-53.5625-128.253906-122-135.28125zm-360-180.71875h330v30h-330zm0 270v-210h330v120.945312c-51.828125 6.101563-94.824219 41.457032-111.984375 89.054688zm346 152c-58.449219 0-106-47.550781-106-106s47.550781-106 106-106 106 47.550781 106 106-47.550781 106-106 106zm0 0"/>
    <path d="m391 310h-30v81h65v-30h-35zm0 0"/>
</svg>