<svg height="512pt" viewBox="0 0 512 512" width="512pt" 
    xmlns="http://www.w3.org/2000/svg" fill="#e0e0e0">
    <path d="m437.019531 74.980469c-48.351562-48.351563-112.640625-74.980469-181.019531-74.980469s-132.667969 26.628906-181.019531 74.980469c-48.351563 48.351562-74.980469 112.640625-74.980469 181.019531s26.628906 132.667969 74.980469 181.019531c48.351562 48.351563 112.640625 74.980469 181.019531 74.980469s132.667969-26.628906 181.019531-74.980469c48.351563-48.351562 74.980469-112.640625 74.980469-181.019531s-26.628906-132.667969-74.980469-181.019531zm-21.214843 340.824219c-42.683594 42.6875-99.4375 66.195312-159.804688 66.195312s-117.121094-23.507812-159.804688-66.195312c-42.6875-42.683594-66.195312-99.4375-66.195312-159.804688s23.507812-117.121094 66.195312-159.804688c42.683594-42.6875 99.4375-66.195312 159.804688-66.195312s117.121094 23.507812 159.804688 66.195312c42.6875 42.683594 66.195312 99.4375 66.195312 159.804688s-23.507812 117.121094-66.195312 159.804688zm0 0"/>
    <path d="m340 241h-69v-106h-30v136h99zm0 0"/>
    <path d="m271 80c0 8.285156-6.714844 15-15 15s-15-6.714844-15-15 6.714844-15 15-15 15 6.714844 15 15zm0 0"/>
    <path d="m271 432c0 8.285156-6.714844 15-15 15s-15-6.714844-15-15 6.714844-15 15-15 15 6.714844 15 15zm0 0"/>
    <path d="m447 256c0 8.285156-6.714844 15-15 15s-15-6.714844-15-15 6.714844-15 15-15 15 6.714844 15 15zm0 0"/>
    <path d="m95 256c0 8.285156-6.714844 15-15 15s-15-6.714844-15-15 6.714844-15 15-15 15 6.714844 15 15zm0 0"/>
    <path d="m421.398438 160.496094c-4.140626-7.175782-13.316407-9.632813-20.488282-5.492188-7.175781 4.144532-9.632812 13.316406-5.492187 20.492188 4.144531 7.171875 13.316406 9.628906 20.492187 5.488281 7.171875-4.140625 9.632813-13.316406 5.488282-20.488281zm0 0"/>
    <path d="m116.566406 336.488281c-4.140625-7.171875-13.3125-9.628906-20.488281-5.488281s-9.632813 13.316406-5.488281 20.488281c4.140625 7.175781 13.3125 9.632813 20.488281 5.492188s9.632813-13.316407 5.488281-20.492188zm0 0"/>
    <path d="m180.984375 96.078125c-4.140625-7.175781-13.3125-9.632813-20.488281-5.492187-7.175782 4.144531-9.632813 13.316406-5.488282 20.492187 4.140626 7.171875 13.3125 9.632813 20.488282 5.488281 7.175781-4.140625 9.632812-13.316406 5.488281-20.488281zm0 0"/>
    <path d="m356.980469 400.910156c-4.140625-7.175781-13.316407-9.632812-20.488281-5.488281-7.175782 4.140625-9.632813 13.3125-5.492188 20.488281 4.144531 7.175782 13.316406 9.632813 20.492188 5.488282 7.171874-4.140626 9.628906-13.3125 5.488281-20.488282zm0 0"/>
    <path d="m111.074219 155.011719c-7.171875-4.140625-16.347657-1.683594-20.488281 5.492187-4.140626 7.171875-1.683594 16.347656 5.488281 20.488282 7.175781 4.144531 16.347656 1.683593 20.492187-5.488282 4.140625-7.175781 1.683594-16.347656-5.492187-20.492187zm0 0"/>
    <path d="m415.910156 331.023438c-7.171875-4.144532-16.347656-1.683594-20.488281 5.488281-4.140625 7.175781-1.683594 16.347656 5.488281 20.492187 7.175782 4.140625 16.351563 1.683594 20.492188-5.492187 4.140625-7.171875 1.683594-16.347657-5.492188-20.488281zm0 0"/>
    <path d="m351.496094 90.597656c-7.171875-4.140625-16.347656-1.683594-20.488282 5.492188-4.140624 7.171875-1.683593 16.347656 5.488282 20.488281 7.175781 4.140625 16.347656 1.683594 20.492187-5.488281 4.140625-7.175782 1.683594-16.347656-5.492187-20.492188zm0 0"/>
    <path d="m175.488281 395.433594c-7.171875-4.140625-16.347656-1.683594-20.488281 5.492187-4.144531 7.171875-1.683594 16.347657 5.488281 20.488281 7.175781 4.140626 16.347657 1.683594 20.492188-5.488281 4.140625-7.175781 1.683593-16.347656-5.492188-20.492187zm0 0"/>
</svg>