<svg id="timezone" data-name="Timezone" class="timezone-icon"
    xmlns="http://www.w3.org/2000/svg" viewBox="0 0 415.16 438.74">
    <title>Timezone</title>
    <path d="M936.05,713.8c-58,0-105.48,47.46-105.48,105.48S878,924.76,936.05,924.76s105.48-47.47,105.48-105.48S994.06,713.8,936.05,713.8Zm0,189.86a84.39,84.39,0,1,1,84.38-84.38A84.5,84.5,0,0,1,936.05,903.66Zm5.27-137.12H925.5v63.28l54.85,33.76,8.44-13.71-47.47-28.48Z" transform="translate(-626.37 -486.02)"/>
    <path d="M830.36,486c-112.71,0-204,91.48-204,204.19s91.28,204.19,204,204.19a205.9,205.9,0,0,0,36.48-3.24,99.52,99.52,0,0,1-28.29-50.59q-3.84,6.2-8,12.18a287.66,287.66,0,0,1-39-80.86h56.64a99.88,99.88,0,0,1,72.55-51.23,300,300,0,0,0,1.69-30.45,335.93,335.93,0,0,0-2.86-40.84h69a159.71,159.71,0,0,1,0,81.68H982.7a100.08,100.08,0,0,1,37.59,34.73,203.25,203.25,0,0,0,14.47-75.57C1034.76,577.5,943.28,486,830.36,486Zm.21,41.65a287.93,287.93,0,0,1,39,80.86h-78A287.66,287.66,0,0,1,830.57,527.67ZM672.52,731.05a159.71,159.71,0,0,1,0-81.68h69a293,293,0,0,0,0,81.68Zm16.75,40.84H749.5a320,320,0,0,0,28.18,72.69A163.12,163.12,0,0,1,689.27,771.89ZM749.5,608.53H689.27a163.07,163.07,0,0,1,88.41-72.69A320,320,0,0,0,749.5,608.53ZM878.35,731.05H782.79a256.67,256.67,0,0,1,0-81.68h95.56a257.44,257.44,0,0,1,0,81.68Zm33.28-122.52a319.56,319.56,0,0,0-28.18-72.69,164,164,0,0,1,88.42,72.69Z" transform="translate(-626.37 -486.02)"/>
</svg>